<svg
	xmlns="http://www.w3.org/2000/svg"
	viewBox="0 0 195 184">
	<path fill="#663399"
		  d="M186.455,154.992 C182.33,162.674 176.110,168.943 169.275,173.650 C169.998,172.654 170.689,171.625 171.330,170.550 C183.3,150.985 176.76,125.966 155.859,114.670 C135.642,103.374 109.790,110.78 98.118,129.643 C90.895,141.750 90.801,155.941 96.563,167.681 C93.653,170.299 90.467,172.688 86.946,174.727 C59.497,190.622 24.398,181.189 8.550,153.658 C5.233,147.895 3.37,141.796 1.867,135.609 C14.601,151.571 37.878,156.363 56.422,146.1 C76.639,134.705 83.566,109.687 71.894,90.121 C65.73,78.687 53.407,71.656 40.856,70.32 C40.923,70.11 40.989,69.984 41.56,69.963 C40.212,66.35 39.757,61.962 39.757,57.781 C39.757,25.991 65.451,0.219 97.146,0.219 C106.279,0.219 114.908,2.369 122.574,6.176 C121.360,6.75 120.135,6.12 118.894,6.12 C95.549,6.12 76.624,24.327 76.624,46.919 C76.624,69.512 95.549,87.826 118.894,87.826 C132.925,87.826 145.353,81.205 153.41,71.20 C157.283,72.283 161.449,74.45 165.449,76.361 C192.898,92.256 202.303,127.461 186.455,154.992 Z"/>
</svg>
